<svg width="54" height="54" viewBox="0 0 54 54" fill="none" xmlns="http://www.w3.org/2000/svg">
<path d="M44.3334 6.6499H8.86669C8.27879 6.6499 7.71498 6.88344 7.29927 7.29915C6.88357 7.71485 6.65002 8.27867 6.65002 8.86657V44.3332C6.65002 44.9211 6.88357 45.4849 7.29927 45.9007C7.71498 46.3164 8.27879 46.5499 8.86669 46.5499H44.3334C44.9212 46.5499 45.4851 46.3164 45.9008 45.9007C46.3165 45.4849 46.55 44.9211 46.55 44.3332V8.86657C46.55 8.27867 46.3165 7.71485 45.9008 7.29915C45.4851 6.88344 44.9212 6.6499 44.3334 6.6499ZM18.4848 40.6469H12.5619V21.6058H18.4848V40.6469ZM15.5233 19.0056C14.6133 19.0056 13.7405 18.6441 13.097 18.0006C12.4535 17.3571 12.0919 16.4843 12.0919 15.5742C12.0919 14.6641 12.4535 13.7913 13.097 13.1478C13.7405 12.5043 14.6133 12.1428 15.5233 12.1428C16.4334 12.1428 17.3062 12.5043 17.9497 13.1478C18.5932 13.7913 18.9547 14.6641 18.9547 15.5742C18.9547 16.4843 18.5932 17.3571 17.9497 18.0006C17.3062 18.6441 16.4334 19.0056 15.5233 19.0056ZM40.6493 40.6469H34.733V31.3879C34.733 29.1801 34.6931 26.3406 31.6562 26.3406C28.5751 26.3406 28.1074 28.7479 28.1074 31.2327V40.6491H22.1955V21.608H27.8702V24.2103H27.9522C28.7391 22.7141 30.672 21.1358 33.5471 21.1358C39.5409 21.1358 40.647 25.0771 40.647 30.2064V40.6469H40.6493Z" fill="#CCCCCC"/>
</svg>
