<svg width="54" height="54" viewBox="0 0 54 54" fill="none" xmlns="http://www.w3.org/2000/svg">
<path d="M43.5198 17.7268C43.5486 18.1148 43.5486 18.5005 43.5486 18.8862C43.5486 30.6899 34.5644 44.2914 18.1456 44.2914C13.0872 44.2914 8.38782 42.8262 4.43329 40.2814C5.15149 40.3634 5.84309 40.3923 6.59011 40.3923C10.6089 40.402 14.5139 39.0581 17.6757 36.5774C15.8124 36.5436 14.0061 35.9289 12.5091 34.819C11.0121 33.709 9.89911 32.1593 9.32547 30.3862C9.87742 30.4682 10.4316 30.5237 11.0124 30.5237C11.8126 30.5237 12.6172 30.4128 13.3642 30.22C11.3421 29.8117 9.5238 28.7156 8.21851 27.1182C6.91321 25.5207 6.20151 23.5204 6.20441 21.4575V21.3467C7.39476 22.0094 8.77574 22.424 10.2387 22.4794C9.01312 21.6649 8.00815 20.5598 7.31349 19.2625C6.61883 17.9653 6.25608 16.5162 6.2576 15.0447C6.2576 13.3866 6.69872 11.866 7.47234 10.5404C9.71591 13.3002 12.5142 15.558 15.6858 17.1675C18.8575 18.777 22.3319 19.7024 25.884 19.8837C25.7465 19.2187 25.6623 18.5293 25.6623 17.8377C25.6617 16.665 25.8923 15.5036 26.3408 14.4201C26.7893 13.3366 27.4469 12.352 28.2762 11.5228C29.1054 10.6936 30.0899 10.0359 31.1735 9.58741C32.257 9.13891 33.4183 8.90835 34.591 8.90894C37.1624 8.90894 39.4832 9.98624 41.1147 11.7285C43.1136 11.342 45.0305 10.6123 46.7805 9.57172C46.1142 11.635 44.7185 13.3846 42.8548 14.4927C44.6276 14.2905 46.3603 13.8243 47.9952 13.1095C46.7741 14.8897 45.261 16.4508 43.5198 17.7268Z" fill="#CCCCCC"/>
</svg>
